<?xml version="1.0" encoding="UTF-8" standalone="no"?><svg xmlns="http://www.w3.org/2000/svg" xmlns:xlink="http://www.w3.org/1999/xlink"><symbol id="sun-down" xmlns="http://www.w3.org/2000/svg" enable-background="new 0 0 96 96" height="96px" width="96px" viewBox="0 0 96 96"><g><path d="M48,30c1.104,0,2-0.896,2-2v-4c0-1.104-0.896-2-2-2c-1.105,0-2,0.896-2,2v4C46,29.104,46.895,30,48,30z"></path><path d="M28,46h-4c-1.105,0-2,0.896-2,2s0.895,2,2,2h4c1.104,0,2-0.896,2-2S29.104,46,28,46z"></path><path d="M72,46h-4c-1.105,0-2,0.896-2,2s0.895,2,2,2h4c1.104,0,2-0.896,2-2S73.104,46,72,46z"></path><path d="M66.385,29.615c-0.781-0.781-2.047-0.781-2.828,0l-2.828,2.828c-0.781,0.781-0.781,2.047,0,2.828    c0.391,0.391,0.902,0.586,1.414,0.586s1.023-0.195,1.414-0.586l2.828-2.828C67.166,31.662,67.166,30.396,66.385,29.615z"></path><path d="M35.271,32.443l-2.828-2.828c-0.781-0.781-2.047-0.781-2.828,0c-0.781,0.781-0.781,2.047,0,2.828l2.828,2.828    c0.391,0.391,0.902,0.586,1.414,0.586s1.023-0.195,1.414-0.586C36.053,34.49,36.053,33.225,35.271,32.443z"></path><path d="M48,34c-7.72,0-14,6.28-14,14c0,2.449,0.652,4.871,1.888,7.003C36.245,55.62,36.904,56,37.618,56h20.764    c0.714,0,1.373-0.38,1.73-0.997C61.348,52.871,62,50.449,62,48C62,40.28,55.72,34,48,34z M57.157,52H38.843    C38.289,50.738,38,49.375,38,48c0-5.514,4.486-10,10-10c5.514,0,10,4.486,10,10C58,49.375,57.711,50.738,57.157,52z"></path><path d="M52.586,64.586L50,67.172V62c0-1.104-0.896-2-2-2c-1.105,0-2,0.896-2,2v5.172l-2.586-2.586    c-0.781-0.781-2.047-0.781-2.828,0c-0.781,0.781-0.781,2.047,0,2.828l6,6C46.977,73.805,47.488,74,48,74    c0.512,0,1.023-0.195,1.414-0.586l6-6c0.781-0.781,0.781-2.047,0-2.828C54.633,63.805,53.367,63.805,52.586,64.586z"></path></g></symbol><symbol id="sun-rise" xmlns="http://www.w3.org/2000/svg" enable-background="new 0 0 96 96" height="96px" width="96px" viewBox="0 0 96 96"><g><path d="M48,30c1.104,0,2-0.896,2-2v-4c0-1.104-0.896-2-2-2c-1.105,0-2,0.896-2,2v4C46,29.104,46.895,30,48,30z"></path><path d="M28,46h-4c-1.105,0-2,0.896-2,2s0.895,2,2,2h4c1.104,0,2-0.896,2-2S29.104,46,28,46z"></path><path d="M72,46h-4c-1.105,0-2,0.896-2,2s0.895,2,2,2h4c1.104,0,2-0.896,2-2S73.104,46,72,46z"></path><path d="M66.385,29.615c-0.781-0.781-2.047-0.781-2.828,0l-2.828,2.828c-0.781,0.781-0.781,2.047,0,2.828    c0.391,0.391,0.902,0.586,1.414,0.586s1.023-0.195,1.414-0.586l2.828-2.828C67.166,31.662,67.166,30.396,66.385,29.615z"></path><path d="M35.271,32.443l-2.828-2.828c-0.781-0.781-2.047-0.781-2.828,0c-0.781,0.781-0.781,2.047,0,2.828l2.828,2.828    c0.391,0.391,0.902,0.586,1.414,0.586s1.024-0.195,1.414-0.586C36.053,34.49,36.053,33.225,35.271,32.443z"></path><path d="M48,34c-7.72,0-14,6.28-14,14c0,2.449,0.652,4.871,1.888,7.003C36.245,55.62,36.904,56,37.618,56h20.764    c0.714,0,1.373-0.38,1.731-0.997C61.348,52.871,62,50.449,62,48C62,40.28,55.72,34,48,34z M57.157,52H38.843    C38.289,50.738,38,49.375,38,48c0-5.514,4.486-10,10-10c5.514,0,10,4.486,10,10C58,49.375,57.711,50.738,57.157,52z"></path><path d="M49.414,60.586c-0.781-0.781-2.047-0.781-2.828,0l-6,6c-0.781,0.781-0.781,2.047,0,2.828c0.781,0.781,2.047,0.781,2.828,0    L46,66.828V72c0,1.104,0.895,2,2,2c1.104,0,2-0.896,2-2v-5.172l2.586,2.586C52.977,69.805,53.488,70,54,70    c0.512,0,1.023-0.195,1.414-0.586c0.781-0.781,0.781-2.047,0-2.828L49.414,60.586z"></path></g></symbol><symbol id="temp-high" xmlns="http://www.w3.org/2000/svg" enable-background="new 0 0 96 96" height="96px" width="96px" viewBox="0 0 96 96"><g><path d="M50,58.424V30c0-1.104-0.896-2-2-2c-1.105,0-2,0.896-2,2v28.424c-1.763,0.773-3,2.531-3,4.576c0,2.757,2.243,5,5,5    c2.757,0,5-2.243,5-5C53,60.955,51.763,59.197,50,58.424z M48,64c-0.552,0-1-0.448-1-1s0.448-1,1-1c0.552,0,1,0.448,1,1    S48.552,64,48,64z"></path><path d="M56.009,55.459L56,30c0-4.411-3.589-8-8-8c-4.411,0-8,3.589-8,7.999l-0.01,25.46C38.08,57.492,37,60.192,37,63    c0,6.065,4.935,11,11,11c6.065,0,11-4.935,11-11C59,60.191,57.92,57.491,56.009,55.459z M48,70c-3.859,0-7-3.141-7-7    c0-1.984,0.848-3.885,2.327-5.213c0.422-0.38,0.663-0.92,0.663-1.487L44,30c0-2.206,1.794-4,4-4c2.206,0,4,1.794,4,4.001    L52.009,56.3c0,0.567,0.241,1.108,0.664,1.487C54.151,59.115,55,61.015,55,63C55,66.859,51.859,70,48,70z"></path></g></symbol><symbol id="temp-low" xmlns="http://www.w3.org/2000/svg" enable-background="new 0 0 96 96" height="96px" width="96px" viewBox="0 0 96 96"><g><path d="M48,58c-2.757,0-5,2.243-5,5c0,2.757,2.243,5,5,5c2.757,0,5-2.243,5-5C53,60.243,50.757,58,48,58z M48,64    c-0.552,0-1-0.448-1-1s0.448-1,1-1c0.552,0,1,0.448,1,1S48.552,64,48,64z"></path><path d="M56.009,55.459L56,30c0-4.411-3.589-8-8-8c-4.411,0-8,3.589-8,7.999l-0.01,25.46C38.08,57.492,37,60.192,37,63    c0,6.065,4.935,11,11,11c6.065,0,11-4.935,11-11C59,60.191,57.92,57.491,56.009,55.459z M48,70c-3.859,0-7-3.141-7-7    c0-1.984,0.848-3.885,2.327-5.213c0.422-0.38,0.663-0.92,0.663-1.487L44,30c0-2.206,1.794-4,4-4c2.206,0,4,1.794,4,4.001    L52.009,56.3c0,0.567,0.241,1.108,0.664,1.487C54.151,59.115,55,61.015,55,63C55,66.859,51.859,70,48,70z"></path></g></symbol></svg>