<?xml version="1.0" encoding="UTF-8" standalone="no"?><svg xmlns="http://www.w3.org/2000/svg" xmlns:xlink="http://www.w3.org/1999/xlink"><symbol id="dew-point" width="100%" height="100%" viewBox="0 0 24 24" fill="none" xmlns="http://www.w3.org/2000/svg"><path d="M12 21.5C16.1012 21.5 19.5 18.4372 19.5 14.5714C19.5 12.1555 18.2672 9.71249 16.8732 7.70906C15.4698 5.69214 13.8515 4.04821 12.9778 3.21778C12.4263 2.69364 11.5737 2.69364 11.0222 3.21779C10.1485 4.04821 8.53016 5.69214 7.1268 7.70906C5.73282 9.71249 4.5 12.1555 4.5 14.5714C4.5 18.4372 7.8988 21.5 12 21.5Z" stroke="#222222"></path><path d="M12 18C11.4747 18 10.9546 17.8965 10.4693 17.6955C9.98396 17.4945 9.54301 17.1999 9.17157 16.8284C8.80014 16.457 8.5055 16.016 8.30448 15.5307C8.10346 15.0454 8 14.5253 8 14" stroke="#222222" stroke-linecap="round"></path></symbol><symbol id="temp-high" xmlns="http://www.w3.org/2000/svg" enable-background="new 0 0 96 96" height="1em" width="1em" viewBox="0 0 96 96"><g><path d="M50,58.424V30c0-1.104-0.896-2-2-2c-1.105,0-2,0.896-2,2v28.424c-1.763,0.773-3,2.531-3,4.576c0,2.757,2.243,5,5,5    c2.757,0,5-2.243,5-5C53,60.955,51.763,59.197,50,58.424z M48,64c-0.552,0-1-0.448-1-1s0.448-1,1-1c0.552,0,1,0.448,1,1    S48.552,64,48,64z"></path><path d="M56.009,55.459L56,30c0-4.411-3.589-8-8-8c-4.411,0-8,3.589-8,7.999l-0.01,25.46C38.08,57.492,37,60.192,37,63    c0,6.065,4.935,11,11,11c6.065,0,11-4.935,11-11C59,60.191,57.92,57.491,56.009,55.459z M48,70c-3.859,0-7-3.141-7-7    c0-1.984,0.848-3.885,2.327-5.213c0.422-0.38,0.663-0.92,0.663-1.487L44,30c0-2.206,1.794-4,4-4c2.206,0,4,1.794,4,4.001    L52.009,56.3c0,0.567,0.241,1.108,0.664,1.487C54.151,59.115,55,61.015,55,63C55,66.859,51.859,70,48,70z"></path></g></symbol><symbol id="sun" width="100%" height="100%" viewBox="0 0 24 24" fill="currentColor" stroke="#000" xmlns="http://www.w3.org/2000/svg"><path d="M3 12H5M5.00006 19L7.00006 17M12 19V21M17 17L19 19M5 5L7 7M19 12H21M16.9999 7L18.9999 5M12 3V5M15 12C15 13.6569 13.6569 15 12 15C10.3431 15 9 13.6569 9 12C9 10.3431 10.3431 9 12 9C13.6569 9 15 10.3431 15 12Z" stroke="#000000" stroke-width="1.5" stroke-linecap="round" stroke-linejoin="round"></path></symbol><symbol id="temp-low" xmlns="http://www.w3.org/2000/svg" enable-background="new 0 0 96 96" height="96px" width="96px" viewBox="0 0 96 96"><g><path d="M48,58c-2.757,0-5,2.243-5,5c0,2.757,2.243,5,5,5c2.757,0,5-2.243,5-5C53,60.243,50.757,58,48,58z M48,64    c-0.552,0-1-0.448-1-1s0.448-1,1-1c0.552,0,1,0.448,1,1S48.552,64,48,64z"></path><path d="M56.009,55.459L56,30c0-4.411-3.589-8-8-8c-4.411,0-8,3.589-8,7.999l-0.01,25.46C38.08,57.492,37,60.192,37,63    c0,6.065,4.935,11,11,11c6.065,0,11-4.935,11-11C59,60.191,57.92,57.491,56.009,55.459z M48,70c-3.859,0-7-3.141-7-7    c0-1.984,0.848-3.885,2.327-5.213c0.422-0.38,0.663-0.92,0.663-1.487L44,30c0-2.206,1.794-4,4-4c2.206,0,4,1.794,4,4.001    L52.009,56.3c0,0.567,0.241,1.108,0.664,1.487C54.151,59.115,55,61.015,55,63C55,66.859,51.859,70,48,70z"></path></g></symbol><symbol id="humidity" fill="currentColor" height="100%" width="100%" version="1.1" xmlns="http://www.w3.org/2000/svg" xmlns:xlink="http://www.w3.org/1999/xlink" viewBox="0 0 328.611 328.611" xml:space="preserve"><g><path d="M209.306,50.798c-2.452-3.337-7.147-4.055-10.485-1.602c-3.338,2.453-4.055,7.147-1.603,10.485
		c54.576,74.266,66.032,123.541,66.032,151.8c0,27.691-8.272,52.794-23.293,70.685c-17.519,20.866-42.972,31.446-75.651,31.446
		c-73.031,0-98.944-55.018-98.944-102.131c0-52.227,28.103-103.234,51.679-136.829c25.858-36.847,52.11-61.415,52.37-61.657
		c3.035-2.819,3.209-7.565,0.39-10.6c-2.819-3.034-7.565-3.209-10.599-0.39c-1.11,1.031-27.497,25.698-54.254,63.765
		c-24.901,35.428-54.586,89.465-54.586,145.71c0,31.062,9.673,59.599,27.236,80.353c20.361,24.061,50.345,36.779,86.708,36.779
		c36.794,0,66.926-12.726,87.139-36.801c17.286-20.588,26.806-49.117,26.806-80.33C278.25,156.216,240.758,93.597,209.306,50.798z"></path><path d="M198.43,148.146l-95.162,95.162c-2.929,2.929-2.929,7.678,0,10.606c1.465,1.464,3.385,2.197,5.304,2.197
		s3.839-0.732,5.304-2.197l95.162-95.162c2.929-2.929,2.929-7.678,0-10.606C206.107,145.217,201.359,145.217,198.43,148.146z"></path><path d="M191.965,207.899c-13.292,0-24.106,10.814-24.106,24.106s10.814,24.106,24.106,24.106s24.106-10.814,24.106-24.106
		S205.257,207.899,191.965,207.899z M191.965,241.111c-5.021,0-9.106-4.085-9.106-9.106s4.085-9.106,9.106-9.106
		s9.106,4.085,9.106,9.106S196.986,241.111,191.965,241.111z"></path><path d="M125.178,194.162c13.292,0,24.106-10.814,24.106-24.106s-10.814-24.106-24.106-24.106s-24.106,10.814-24.106,24.106
		S111.886,194.162,125.178,194.162z M125.178,160.949c5.021,0,9.106,4.085,9.106,9.106s-4.085,9.106-9.106,9.106
		c-5.021,0-9.106-4.085-9.106-9.106S120.156,160.949,125.178,160.949z"></path></g></symbol><symbol id="weather-rain" fill="currentColor" height="100%" width="100%" version="1.1" xmlns="http://www.w3.org/2000/svg" xmlns:xlink="http://www.w3.org/1999/xlink" viewBox="0 0 366.856 366.856" xml:space="preserve"><g><path d="M251.613,124.996c0.008-0.422,0.012-0.839,0.012-1.253c0-45.086-36.68-81.767-81.767-81.767
		c-42.736,0-77.92,32.959-81.472,74.792c-7.591-3.063-15.726-4.651-24.036-4.651C28.868,112.117,0,140.984,0,176.468
		c0,35.483,28.868,64.351,64.314,64.351l183.878,0.898c0.012,0,0.024,0,0.037,0c32.207,0,58.409-26.202,58.409-58.409
		C306.637,152.237,282.25,126.755,251.613,124.996z M248.241,226.716l-183.891-0.898C37.139,225.818,15,203.68,15,176.468
		c0-27.212,22.139-49.351,49.351-49.351c9.775,0,19.233,2.864,27.351,8.283c2.382,1.59,5.462,1.686,7.938,0.244
		c2.475-1.441,3.914-4.166,3.707-7.022l-0.036-0.487c-0.112-1.542-0.219-2.998-0.219-4.391c0-36.815,29.951-66.767,66.767-66.767
		s66.767,29.951,66.767,66.767c0,2.407-0.173,5.024-0.529,8.003c-0.269,2.248,0.492,4.497,2.071,6.12
		c1.578,1.623,3.804,2.446,6.061,2.239c1.53-0.14,2.801-0.206,4.001-0.206c23.936,0,43.409,19.473,43.409,43.408
		C291.637,207.239,272.171,226.709,248.241,226.716z"></path><path d="M291.4,34.266c-17.012,0-33.695,5.826-46.977,16.403c-3.24,2.581-3.775,7.299-1.194,10.539
		c2.58,3.24,7.299,3.775,10.539,1.194c10.791-8.594,23.804-13.137,37.632-13.137c33.336,0,60.457,27.121,60.457,60.457
		c0,21.422-11.508,41.446-30.034,52.257c-3.578,2.088-4.785,6.68-2.697,10.258c1.394,2.389,3.905,3.721,6.484,3.721
		c1.284,0,2.585-0.33,3.773-1.023c23.114-13.489,37.473-38.477,37.473-65.212C366.856,68.116,333.007,34.266,291.4,34.266z"></path><path d="M71.888,252.6c-4.142,0-7.5,3.358-7.5,7.5v18.741c0,4.142,3.358,7.5,7.5,7.5s7.5-3.358,7.5-7.5V260.1
		C79.388,255.958,76.03,252.6,71.888,252.6z"></path><path d="M126.175,252.6c-4.142,0-7.5,3.358-7.5,7.5v18.741c0,4.142,3.358,7.5,7.5,7.5s7.5-3.358,7.5-7.5V260.1
		C133.675,255.958,130.317,252.6,126.175,252.6z"></path><path d="M180.462,252.6c-4.142,0-7.5,3.358-7.5,7.5v18.741c0,4.142,3.358,7.5,7.5,7.5s7.5-3.358,7.5-7.5V260.1
		C187.962,255.958,184.604,252.6,180.462,252.6z"></path><path d="M234.749,252.6c-4.142,0-7.5,3.358-7.5,7.5v18.741c0,4.142,3.358,7.5,7.5,7.5s7.5-3.358,7.5-7.5V260.1
		C242.249,255.958,238.891,252.6,234.749,252.6z"></path><path d="M71.888,298.85c-4.142,0-7.5,3.358-7.5,7.5v18.741c0,4.142,3.358,7.5,7.5,7.5s7.5-3.358,7.5-7.5V306.35
		C79.388,302.208,76.03,298.85,71.888,298.85z"></path><path d="M126.175,298.85c-4.142,0-7.5,3.358-7.5,7.5v18.741c0,4.142,3.358,7.5,7.5,7.5s7.5-3.358,7.5-7.5V306.35
		C133.675,302.208,130.317,298.85,126.175,298.85z"></path><path d="M180.462,298.85c-4.142,0-7.5,3.358-7.5,7.5v18.741c0,4.142,3.358,7.5,7.5,7.5s7.5-3.358,7.5-7.5V306.35
		C187.962,302.208,184.604,298.85,180.462,298.85z"></path><path d="M234.749,298.85c-4.142,0-7.5,3.358-7.5,7.5v18.741c0,4.142,3.358,7.5,7.5,7.5s7.5-3.358,7.5-7.5V306.35
		C242.249,302.208,238.891,298.85,234.749,298.85z"></path></g></symbol><symbol id="moon" width="100%" height="100%" viewBox="0 0 24 24" fill="none" xmlns="http://www.w3.org/2000/svg"><g><path d="M9 6C9 10.9706 13.0294 15 18 15C18.9093 15 19.787 14.8655 20.6144 14.6147C19.4943 18.3103 16.0613 20.9999 12 20.9999C7.02944 20.9999 3 16.9707 3 12.0001C3 7.93883 5.69007 4.50583 9.38561 3.38574C9.13484 4.21311 9 5.09074 9 6Z" stroke="#000000" stroke-width="2" stroke-linecap="round" stroke-linejoin="round"></path></g></symbol></svg>